<?xml version="1.0" encoding="UTF-8" standalone="no"?>
<!-- Created with Inkscape (http://www.inkscape.org/) -->

<svg
   xmlns:dc="http://purl.org/dc/elements/1.1/"
   xmlns:cc="http://creativecommons.org/ns#"
   xmlns:rdf="http://www.w3.org/1999/02/22-rdf-syntax-ns#"
   xmlns:svg="http://www.w3.org/2000/svg"
   xmlns="http://www.w3.org/2000/svg"
   xmlns:xlink="http://www.w3.org/1999/xlink"
   xmlns:sodipodi="http://sodipodi.sourceforge.net/DTD/sodipodi-0.dtd"
   xmlns:inkscape="http://www.inkscape.org/namespaces/inkscape"
   width="64px"
   height="64px"
   id="svg2818"
   version="1.1"
   inkscape:version="0.47 r22583"
   sodipodi:docname="message64x64.svg">
  <defs
     id="defs2820">
    <linearGradient
       id="linearGradient3670">
      <stop
         style="stop-color:#57aeff;stop-opacity:1;"
         offset="0"
         id="stop3672" />
      <stop
         style="stop-color:#80b3ff;stop-opacity:0;"
         offset="1"
         id="stop3674" />
    </linearGradient>
    <linearGradient
       id="linearGradient3605">
      <stop
         style="stop-color:#91ffee;stop-opacity:1;"
         offset="0"
         id="stop3607" />
      <stop
         style="stop-color:#aaffee;stop-opacity:0;"
         offset="1"
         id="stop3609" />
    </linearGradient>
    <linearGradient
       inkscape:collect="always"
       id="linearGradient3639">
      <stop
         style="stop-color:#0000ff;stop-opacity:1;"
         offset="0"
         id="stop3641" />
      <stop
         style="stop-color:#0000ff;stop-opacity:0;"
         offset="1"
         id="stop3643" />
    </linearGradient>
    <inkscape:perspective
       sodipodi:type="inkscape:persp3d"
       inkscape:vp_x="0 : 32 : 1"
       inkscape:vp_y="0 : 1000 : 0"
       inkscape:vp_z="64 : 32 : 1"
       inkscape:persp3d-origin="32 : 21.333333 : 1"
       id="perspective2826" />
    <linearGradient
       inkscape:collect="always"
       xlink:href="#linearGradient3639"
       id="linearGradient3645"
       x1="25.56975"
       y1="23.620583"
       x2="54.576706"
       y2="13.438765"
       gradientUnits="userSpaceOnUse" />
    <linearGradient
       inkscape:collect="always"
       xlink:href="#linearGradient3639"
       id="linearGradient3681"
       gradientUnits="userSpaceOnUse"
       x1="25.56975"
       y1="23.620583"
       x2="54.576706"
       y2="13.438765"
       gradientTransform="translate(0.72727273,2.7272727)" />
    <linearGradient
       inkscape:collect="always"
       xlink:href="#linearGradient3639"
       id="linearGradient3683"
       gradientUnits="userSpaceOnUse"
       x1="25.56975"
       y1="23.620583"
       x2="54.576706"
       y2="13.438765"
       gradientTransform="translate(0.72727273,2.7272727)" />
    <linearGradient
       inkscape:collect="always"
       xlink:href="#linearGradient3670"
       id="linearGradient3676"
       x1="8.0772721"
       y1="32.181818"
       x2="61.377277"
       y2="32.181816"
       gradientUnits="userSpaceOnUse"
       gradientTransform="matrix(0.86263898,0,0,0.86521117,5.1103376,3.4286588)" />
  </defs>
  <sodipodi:namedview
     id="base"
     pagecolor="#ffffff"
     bordercolor="#666666"
     borderopacity="1.0"
     inkscape:pageopacity="0.0"
     inkscape:pageshadow="2"
     inkscape:zoom="5.5"
     inkscape:cx="-1.5454545"
     inkscape:cy="32"
     inkscape:current-layer="layer1"
     showgrid="true"
     inkscape:document-units="px"
     inkscape:grid-bbox="true"
     inkscape:window-width="1280"
     inkscape:window-height="949"
     inkscape:window-x="0"
     inkscape:window-y="24"
     inkscape:window-maximized="1" />
  <metadata
     id="metadata2823">
    <rdf:RDF>
      <cc:Work
         rdf:about="">
        <dc:format>image/svg+xml</dc:format>
        <dc:type
           rdf:resource="http://purl.org/dc/dcmitype/StillImage" />
        <dc:title></dc:title>
      </cc:Work>
    </rdf:RDF>
  </metadata>
  <g
     id="layer1"
     inkscape:label="Layer 1"
     inkscape:groupmode="layer">
    <g
       id="my-icon-incoming-message">
      <rect
         y="19.00246"
         x="12.638823"
         height="24.540533"
         width="39.995079"
         id="rect3602"
         style="fill:url(#linearGradient3676);fill-opacity:1;stroke:#373e48;stroke-width:1.12310123;stroke-linecap:round;stroke-linejoin:round;stroke-miterlimit:4;stroke-dasharray:none" />
      <path
         d="m 15.779791,20.771743 c 0.259047,0.188649 0.521653,0.370648 0.793588,0.54075 0.20987,0.143268 0.386129,0.325239 0.578589,0.488972 0.191109,0.197692 0.40732,0.367018 0.592643,0.57117 0.240904,0.273922 0.458806,0.566148 0.706686,0.833663 0.257428,0.269122 0.483376,0.566254 0.729241,0.846054 0.244601,0.302548 0.471668,0.61984 0.723644,0.916087 0.283536,0.292844 0.537043,0.612301 0.804913,0.919337 0.226625,0.320483 0.50905,0.591514 0.762387,0.889423 0.260275,0.286002 0.500661,0.587291 0.740292,0.890553 0.247079,0.284717 0.523308,0.540715 0.776511,0.821072 0.30637,0.347793 0.638674,0.671356 0.943591,1.020202 0.359121,0.314681 0.700251,0.646905 1.032536,0.98985 0.302612,0.322237 0.625277,0.62541 0.914377,0.960005 0.289968,0.340863 0.611968,0.649601 0.920028,0.973082 0.30482,0.273349 0.592923,0.564733 0.901523,0.833688 0.326909,0.294799 0.654926,0.583153 1.011824,0.840885 0.33147,0.229882 0.612001,0.521923 0.925282,0.773795 0.263392,0.149784 0.484492,0.365523 0.752936,0.505064 0.198857,0.155804 0.443626,0.223323 0.679203,0.302781 0.262201,0.08711 0.510341,0.19244 0.784973,0.238736 0.294768,0.03841 0.592686,0.03849 0.889404,0.04031 0.392818,0.0016 0.785653,0.0031 1.178477,0.0029 0.417506,0.0075 0.827105,-0.08937 1.233306,-0.173754 0.483724,-0.150725 0.950953,-0.354106 1.415659,-0.555721 0.08371,-0.04164 0.167793,-0.08256 0.251158,-0.124907 0.08549,-0.04342 0.171311,-0.08631 0.255409,-0.132395 0.08293,-0.04545 0.327455,-0.189469 0.245559,-0.142158 -2.253934,1.302089 -1.179419,0.685093 -0.688822,0.378873 0.459474,-0.287535 0.907273,-0.591147 1.330565,-0.930086 0.453171,-0.351603 0.873101,-0.74379 1.283329,-1.144211 0.448041,-0.41906 0.866361,-0.868037 1.259214,-1.339111 0.337708,-0.399649 0.663463,-0.809089 0.982206,-1.224058 0.412617,-0.457452 0.754541,-0.966637 1.095582,-1.477775 0.371676,-0.584855 0.774569,-1.147834 1.223726,-1.675134 0.441967,-0.455982 0.853211,-0.938523 1.266507,-1.420157 0.386582,-0.443485 0.75864,-0.89844 1.124407,-1.359188 0.251628,-0.3126 0.526454,-0.606434 0.810885,-0.889143 0.200071,-0.192032 0.393861,-0.390175 0.592097,-0.584143 0.162213,-0.176718 0.358002,-0.311482 0.552986,-0.448321 0.209248,-0.173167 0.444621,-0.308015 0.657527,-0.476188 0.109398,-0.07884 0.222222,-0.152442 0.3326,-0.229873 0,0 1.58191,-0.619165 1.58191,-0.619165 l 0,0 c -0.11625,0.0711 -0.216241,0.161033 -0.340069,0.21945 -0.216137,0.16046 -0.424472,0.325394 -0.653622,0.468323 -0.174452,0.165809 -0.407433,0.251826 -0.559136,0.443083 -0.216175,0.176427 -0.389526,0.395988 -0.602403,0.575915 -0.278312,0.294137 -0.582828,0.565226 -0.837106,0.882448 -0.372345,0.460104 -0.741557,0.922046 -1.129693,1.369074 -0.422311,0.475343 -0.814719,0.977607 -1.271637,1.422036 -0.458474,0.515711 -0.867255,1.071259 -1.234091,1.656485 -0.338646,0.507865 -0.653535,1.034705 -1.076272,1.479778 -0.312399,0.423134 -0.644435,0.831774 -0.983807,1.233337 -0.392979,0.475904 -0.804493,0.937163 -1.258642,1.355871 -0.399608,0.407289 -0.817685,0.800027 -1.264484,1.154544 -0.420904,0.349457 -0.867513,0.661509 -1.330475,0.952555 -0.949411,0.59507 -1.906257,1.186526 -2.922363,1.660267 -0.472622,0.201501 -0.946405,0.414199 -1.446375,0.537451 -0.412014,0.08755 -0.830179,0.159566 -1.253152,0.145532 -0.397107,9.52e-4 -0.7942,0.0053 -1.191315,0.004 -0.304122,-0.0042 -0.61019,-0.0082 -0.910208,-0.06395 -0.274805,-0.06191 -0.529295,-0.174722 -0.797491,-0.258304 -0.244636,-0.08619 -0.491156,-0.165607 -0.699274,-0.32734 -0.26303,-0.16215 -0.497683,-0.367089 -0.75547,-0.537719 -0.305378,-0.257134 -0.593409,-0.53589 -0.922203,-0.764221 -0.356504,-0.263495 -0.673548,-0.569405 -1.007883,-0.8596 -0.315508,-0.270382 -0.622714,-0.55168 -0.919685,-0.842426 -0.306247,-0.326818 -0.624207,-0.642084 -0.917163,-0.981677 -0.294019,-0.327004 -0.611713,-0.63153 -0.913201,-0.9516 -0.332547,-0.344619 -0.672853,-0.67987 -1.027901,-1.001115 -0.310469,-0.344689 -0.645826,-0.665389 -0.956505,-1.009975 -0.257123,-0.281031 -0.5353,-0.540842 -0.780607,-0.831946 -0.2394,-0.301223 -0.479176,-0.600613 -0.740324,-0.883512 -0.253014,-0.29631 -0.527556,-0.573233 -0.752923,-0.892677 -0.269734,-0.308078 -0.533244,-0.6215 -0.815533,-0.918181 -0.24309,-0.301227 -0.475536,-0.611132 -0.717159,-0.913733 -0.246669,-0.278007 -0.47486,-0.57221 -0.731893,-0.840557 -0.245386,-0.269364 -0.459905,-0.564647 -0.708362,-0.831687 -0.186417,-0.196306 -0.405806,-0.354987 -0.592625,-0.550912 -0.180766,-0.163921 -0.357534,-0.332234 -0.55868,-0.471776 -0.263217,-0.175157 -0.519151,-0.364928 -0.795268,-0.51762 0,0 1.426542,-0.941412 1.426542,-0.941412 z"
         id="path3622"
         style="fill:#333333;fill-opacity:1;stroke:none" />
      <path
         d="m 15.196741,40.661402 c 0.223438,-0.469801 0.478251,-0.923693 0.709642,-1.389454 0.225487,-0.491506 0.511315,-0.950803 0.77251,-1.423188 0.214214,-0.403147 0.48608,-0.770543 0.727519,-1.156959 0.175987,-0.26087 0.341826,-0.528529 0.519099,-0.788489 0.16693,-0.211487 0.31423,-0.438428 0.484623,-0.646974 0.209546,-0.272841 0.434805,-0.532643 0.652468,-0.79882 0.185949,-0.227507 0.374579,-0.452838 0.575557,-0.667195 0.155256,-0.16511 0.312255,-0.32893 0.475053,-0.48661 0.156072,-0.157945 0.318617,-0.306117 0.446388,-0.488666 0,0 1.56356,-0.673871 1.56356,-0.673871 l 0,0 c -0.143619,0.17183 -0.249613,0.372007 -0.440179,0.502767 -0.143908,0.175374 -0.321408,0.321361 -0.479232,0.483707 -0.18697,0.229576 -0.407923,0.430673 -0.591699,0.664308 -0.205618,0.27374 -0.448839,0.517511 -0.64019,0.802818 -0.182059,0.197149 -0.310751,0.429105 -0.492755,0.626206 -0.170771,0.266848 -0.349838,0.529029 -0.53326,0.787888 -0.233546,0.393791 -0.519276,0.753179 -0.741076,1.154269 -0.256294,0.476438 -0.5534,0.929944 -0.784808,1.419892 -0.216339,0.45804 -0.469126,0.898155 -0.676586,1.360941 0,0 -1.546634,0.71743 -1.546634,0.71743 z"
         id="path3624"
         style="fill:#333333;fill-opacity:1;stroke:none" />
      <path
         d="m 48.54443,40.640216 c -0.297935,-0.24499 -0.541813,-0.54522 -0.755319,-0.864863 -0.164564,-0.272856 -0.300587,-0.564528 -0.474895,-0.831162 -0.126707,-0.203455 -0.277479,-0.396312 -0.451643,-0.561264 -0.184183,-0.174087 -0.335304,-0.370132 -0.475431,-0.581157 -0.192094,-0.292352 -0.398383,-0.576889 -0.56314,-0.886035 -0.143842,-0.242972 -0.287313,-0.489593 -0.400396,-0.748827 -0.120297,-0.22162 -0.232183,-0.444756 -0.38955,-0.642479 -0.193693,-0.263942 -0.372812,-0.538789 -0.546333,-0.816457 -0.155554,-0.276305 -0.338366,-0.532204 -0.525133,-0.787237 -0.146893,-0.178273 -0.318101,-0.333059 -0.471524,-0.50496 -0.148642,-0.171418 -0.340976,-0.284679 -0.508454,-0.434925 -0.230334,-0.159417 -0.407783,-0.382446 -0.577365,-0.602768 -0.114221,-0.122318 -0.05867,-0.05826 -0.166253,-0.192509 0,0 1.457916,-0.87476 1.457916,-0.87476 l 0,0 c 0.104463,0.129417 0.0493,0.06378 0.166033,0.196503 0.164629,0.212208 0.338382,0.418786 0.561565,0.571929 0.178451,0.146432 0.369861,0.274431 0.521675,0.451319 0.160843,0.173012 0.330736,0.337401 0.477253,0.523507 0.186638,0.259776 0.361104,0.525817 0.523333,0.801797 0.170546,0.27217 0.350806,0.538942 0.542848,0.796266 0.16643,0.209321 0.289775,0.444513 0.41498,0.680308 0.107831,0.256643 0.248764,0.499763 0.384753,0.742096 0.158784,0.305312 0.366152,0.582336 0.559144,0.866362 0.138229,0.19879 0.289221,0.381741 0.464153,0.549523 0.17585,0.181068 0.337313,0.378841 0.465627,0.596831 0.16876,0.269374 0.308865,0.556569 0.46431,0.833826 0.202586,0.306091 0.436764,0.597299 0.743279,0.804724 0,0 -1.441433,0.914412 -1.441433,0.914412 z"
         id="path3626"
         style="fill:#333333;fill-opacity:1;stroke:none" />
    </g>
  </g>
  <g
     inkscape:groupmode="layer"
     id="layer2"
     inkscape:label="Layer" />
</svg>
